<svg width="19" height="18" viewBox="0 0 19 18" fill="none" xmlns="http://www.w3.org/2000/svg">
<path id="Icon" fill-rule="evenodd" clip-rule="evenodd" d="M18.2725 12.9791V15.3877C18.2745 15.8399 18.0745 16.2718 17.7216 16.5775C17.3687 16.8831 16.8957 17.0342 16.4188 16.9935C13.8021 16.725 11.2886 15.8808 9.08028 14.5286C7.0257 13.2959 5.28376 11.6512 3.97819 9.71134C2.54109 7.61679 1.64675 5.23206 1.36763 2.75036C1.32466 2.30145 1.4835 1.85615 1.80536 1.52325C2.12721 1.19035 2.58243 1.0005 3.05982 1.00008H5.61086C6.4645 0.992146 7.19209 1.58294 7.31156 2.38103C7.41923 3.15185 7.61892 3.9087 7.9068 4.63713C8.14042 5.22394 7.991 5.88546 7.52415 6.33121L6.4442 7.35087C7.65472 9.36092 9.41741 11.0252 11.5463 12.1682L12.6262 11.1485C13.0983 10.7077 13.799 10.5666 14.4205 10.7872C15.192 11.059 15.9936 11.2476 16.8099 11.3492C17.665 11.4631 18.294 12.164 18.2725 12.9791Z" stroke="#B9B9B9" stroke-width="1.4" stroke-linecap="round" stroke-linejoin="round"/>
</svg>
