<svg width="24" height="32" viewBox="0 0 24 32" fill="none" xmlns="http://www.w3.org/2000/svg">
<g id=" ">
<path id="Vector" d="M11 8.44301C5.47733 8.44301 1 7.34896 1 6C1 7.32645 1.34433 8.65193 2.03567 9.66475L9.334 20.6585V27.9875C10.254 29.338 11.7467 29.337 12.666 27.9875V20.6585L19.9653 9.66475C20.6553 8.65242 21.001 7.32645 21 6C21 7.34896 16.5227 8.44301 11 8.44301Z" stroke="#979797" stroke-width="1.5" stroke-miterlimit="10" stroke-linecap="round" stroke-linejoin="round"/>
<path id="Vector_2" d="M11 8C16.5228 8 21 6.433 21 4.5C21 2.567 16.5228 1 11 1C5.47715 1 1 2.567 1 4.5C1 6.433 5.47715 8 11 8Z" stroke="#979797" stroke-width="1.5" stroke-miterlimit="10" stroke-linecap="round" stroke-linejoin="round"/>
</g>
</svg>
