<svg width="20" height="25" viewBox="0 0 20 25" fill="none" xmlns="http://www.w3.org/2000/svg">
<g id="Vector">
<mask id="path-1-inside-1_104_903" fill="white">
<path d="M10 0C7.42708 0 5.33333 2.90799 5.33333 6.48148V7.40741C5.33333 8.98076 5.76432 10.9122 6.5013 12.5199L2.08464 15.4532C0.817708 16.2941 0 18.0971 0 20.0467V23.6111C0 24.3761 0.449219 25 1 25H19C19.5508 25 20 24.3761 20 23.6111V20.0467C20 18.0971 19.1823 16.2941 17.9154 15.4532L13.4987 12.5199C14.2357 10.9122 14.6667 8.98076 14.6667 7.40741V6.48148C14.6667 2.90799 12.5729 0 10 0ZM10 0.925926C12.2057 0.925926 14 3.41797 14 6.48148V7.40741C14 10.6735 12.1172 14.8148 10 14.8148C7.88281 14.8148 6 10.6735 6 7.40741V6.48148C6 3.41797 7.79427 0.925926 10 0.925926ZM6.89323 13.2849C7.70052 14.7154 8.77344 15.7407 10 15.7407C11.2266 15.7407 12.2995 14.7172 13.1068 13.2867L17.6276 16.2887C18.6641 16.9759 19.3333 18.4516 19.3333 20.0467V23.6111C19.3333 23.8661 19.1836 24.0741 19 24.0741H1C0.816406 24.0741 0.666667 23.8661 0.666667 23.6111V20.0467C0.666667 18.4516 1.33594 16.9759 2.3724 16.2887L6.89323 13.2849ZM8.33333 18.5185C8.14974 18.5185 8 18.7265 8 18.9815C8 19.2365 8.14974 19.4444 8.33333 19.4444H11.6667C11.8503 19.4444 12 19.2365 12 18.9815C12 18.7265 11.8503 18.5185 11.6667 18.5185H8.33333ZM1.66667 21.2963C1.48307 21.2963 1.33333 21.5043 1.33333 21.7593V22.6852C1.33333 22.9402 1.48307 23.1481 1.66667 23.1481C1.85026 23.1481 2 22.9402 2 22.6852V21.7593C2 21.5043 1.85026 21.2963 1.66667 21.2963ZM3.33333 21.2963C3.14974 21.2963 3 21.5043 3 21.7593V22.6852C3 22.9402 3.14974 23.1481 3.33333 23.1481C3.51693 23.1481 3.66667 22.9402 3.66667 22.6852V21.7593C3.66667 21.5043 3.51693 21.2963 3.33333 21.2963ZM5 21.2963C4.81641 21.2963 4.66667 21.5043 4.66667 21.7593V22.6852C4.66667 22.9402 4.81641 23.1481 5 23.1481C5.18359 23.1481 5.33333 22.9402 5.33333 22.6852V21.7593C5.33333 21.5043 5.18359 21.2963 5 21.2963ZM6.66667 21.2963C6.48307 21.2963 6.33333 21.5043 6.33333 21.7593V22.6852C6.33333 22.9402 6.48307 23.1481 6.66667 23.1481C6.85026 23.1481 7 22.9402 7 22.6852V21.7593C7 21.5043 6.85026 21.2963 6.66667 21.2963ZM8.33333 21.2963C8.14974 21.2963 8 21.5043 8 21.7593V22.6852C8 22.9402 8.14974 23.1481 8.33333 23.1481C8.51693 23.1481 8.66667 22.9402 8.66667 22.6852V21.7593C8.66667 21.5043 8.51693 21.2963 8.33333 21.2963ZM10 21.2963C9.81641 21.2963 9.66667 21.5043 9.66667 21.7593V22.6852C9.66667 22.9402 9.81641 23.1481 10 23.1481C10.1836 23.1481 10.3333 22.9402 10.3333 22.6852V21.7593C10.3333 21.5043 10.1836 21.2963 10 21.2963ZM11.6667 21.2963C11.4831 21.2963 11.3333 21.5043 11.3333 21.7593V22.6852C11.3333 22.9402 11.4831 23.1481 11.6667 23.1481C11.8503 23.1481 12 22.9402 12 22.6852V21.7593C12 21.5043 11.8503 21.2963 11.6667 21.2963ZM13.3333 21.2963C13.1497 21.2963 13 21.5043 13 21.7593V22.6852C13 22.9402 13.1497 23.1481 13.3333 23.1481C13.5169 23.1481 13.6667 22.9402 13.6667 22.6852V21.7593C13.6667 21.5043 13.5169 21.2963 13.3333 21.2963ZM15 21.2963C14.8164 21.2963 14.6667 21.5043 14.6667 21.7593V22.6852C14.6667 22.9402 14.8164 23.1481 15 23.1481C15.1836 23.1481 15.3333 22.9402 15.3333 22.6852V21.7593C15.3333 21.5043 15.1836 21.2963 15 21.2963ZM16.6667 21.2963C16.4831 21.2963 16.3333 21.5043 16.3333 21.7593V22.6852C16.3333 22.9402 16.4831 23.1481 16.6667 23.1481C16.8503 23.1481 17 22.9402 17 22.6852V21.7593C17 21.5043 16.8503 21.2963 16.6667 21.2963ZM18.3333 21.2963C18.1497 21.2963 18 21.5043 18 21.7593V22.6852C18 22.9402 18.1497 23.1481 18.3333 23.1481C18.5169 23.1481 18.6667 22.9402 18.6667 22.6852V21.7593C18.6667 21.5043 18.5169 21.2963 18.3333 21.2963Z"/>
</mask>
<path d="M10 0C7.42708 0 5.33333 2.90799 5.33333 6.48148V7.40741C5.33333 8.98076 5.76432 10.9122 6.5013 12.5199L2.08464 15.4532C0.817708 16.2941 0 18.0971 0 20.0467V23.6111C0 24.3761 0.449219 25 1 25H19C19.5508 25 20 24.3761 20 23.6111V20.0467C20 18.0971 19.1823 16.2941 17.9154 15.4532L13.4987 12.5199C14.2357 10.9122 14.6667 8.98076 14.6667 7.40741V6.48148C14.6667 2.90799 12.5729 0 10 0ZM10 0.925926C12.2057 0.925926 14 3.41797 14 6.48148V7.40741C14 10.6735 12.1172 14.8148 10 14.8148C7.88281 14.8148 6 10.6735 6 7.40741V6.48148C6 3.41797 7.79427 0.925926 10 0.925926ZM6.89323 13.2849C7.70052 14.7154 8.77344 15.7407 10 15.7407C11.2266 15.7407 12.2995 14.7172 13.1068 13.2867L17.6276 16.2887C18.6641 16.9759 19.3333 18.4516 19.3333 20.0467V23.6111C19.3333 23.8661 19.1836 24.0741 19 24.0741H1C0.816406 24.0741 0.666667 23.8661 0.666667 23.6111V20.0467C0.666667 18.4516 1.33594 16.9759 2.3724 16.2887L6.89323 13.2849ZM8.33333 18.5185C8.14974 18.5185 8 18.7265 8 18.9815C8 19.2365 8.14974 19.4444 8.33333 19.4444H11.6667C11.8503 19.4444 12 19.2365 12 18.9815C12 18.7265 11.8503 18.5185 11.6667 18.5185H8.33333ZM1.66667 21.2963C1.48307 21.2963 1.33333 21.5043 1.33333 21.7593V22.6852C1.33333 22.9402 1.48307 23.1481 1.66667 23.1481C1.85026 23.1481 2 22.9402 2 22.6852V21.7593C2 21.5043 1.85026 21.2963 1.66667 21.2963ZM3.33333 21.2963C3.14974 21.2963 3 21.5043 3 21.7593V22.6852C3 22.9402 3.14974 23.1481 3.33333 23.1481C3.51693 23.1481 3.66667 22.9402 3.66667 22.6852V21.7593C3.66667 21.5043 3.51693 21.2963 3.33333 21.2963ZM5 21.2963C4.81641 21.2963 4.66667 21.5043 4.66667 21.7593V22.6852C4.66667 22.9402 4.81641 23.1481 5 23.1481C5.18359 23.1481 5.33333 22.9402 5.33333 22.6852V21.7593C5.33333 21.5043 5.18359 21.2963 5 21.2963ZM6.66667 21.2963C6.48307 21.2963 6.33333 21.5043 6.33333 21.7593V22.6852C6.33333 22.9402 6.48307 23.1481 6.66667 23.1481C6.85026 23.1481 7 22.9402 7 22.6852V21.7593C7 21.5043 6.85026 21.2963 6.66667 21.2963ZM8.33333 21.2963C8.14974 21.2963 8 21.5043 8 21.7593V22.6852C8 22.9402 8.14974 23.1481 8.33333 23.1481C8.51693 23.1481 8.66667 22.9402 8.66667 22.6852V21.7593C8.66667 21.5043 8.51693 21.2963 8.33333 21.2963ZM10 21.2963C9.81641 21.2963 9.66667 21.5043 9.66667 21.7593V22.6852C9.66667 22.9402 9.81641 23.1481 10 23.1481C10.1836 23.1481 10.3333 22.9402 10.3333 22.6852V21.7593C10.3333 21.5043 10.1836 21.2963 10 21.2963ZM11.6667 21.2963C11.4831 21.2963 11.3333 21.5043 11.3333 21.7593V22.6852C11.3333 22.9402 11.4831 23.1481 11.6667 23.1481C11.8503 23.1481 12 22.9402 12 22.6852V21.7593C12 21.5043 11.8503 21.2963 11.6667 21.2963ZM13.3333 21.2963C13.1497 21.2963 13 21.5043 13 21.7593V22.6852C13 22.9402 13.1497 23.1481 13.3333 23.1481C13.5169 23.1481 13.6667 22.9402 13.6667 22.6852V21.7593C13.6667 21.5043 13.5169 21.2963 13.3333 21.2963ZM15 21.2963C14.8164 21.2963 14.6667 21.5043 14.6667 21.7593V22.6852C14.6667 22.9402 14.8164 23.1481 15 23.1481C15.1836 23.1481 15.3333 22.9402 15.3333 22.6852V21.7593C15.3333 21.5043 15.1836 21.2963 15 21.2963ZM16.6667 21.2963C16.4831 21.2963 16.3333 21.5043 16.3333 21.7593V22.6852C16.3333 22.9402 16.4831 23.1481 16.6667 23.1481C16.8503 23.1481 17 22.9402 17 22.6852V21.7593C17 21.5043 16.8503 21.2963 16.6667 21.2963ZM18.3333 21.2963C18.1497 21.2963 18 21.5043 18 21.7593V22.6852C18 22.9402 18.1497 23.1481 18.3333 23.1481C18.5169 23.1481 18.6667 22.9402 18.6667 22.6852V21.7593C18.6667 21.5043 18.5169 21.2963 18.3333 21.2963Z" fill="#979797" stroke="#979797" stroke-width="2" mask="url(#path-1-inside-1_104_903)"/>
</g>
</svg>
