<svg xmlns="http://www.w3.org/2000/svg" viewBox="0 0 64 64"><title>Artboard-2</title><g id="Disount"><path d="M39.707,24.293a.9994.9994,0,0,0-1.414,0l-14,14a1,1,0,1,0,1.414,1.414l14-14A.9994.9994,0,0,0,39.707,24.293Z" style="fill:#232328"/><path d="M27,31a4,4,0,1,0-4-4A4.0045,4.0045,0,0,0,27,31Zm0-6a2,2,0,1,1-2,2A2.002,2.002,0,0,1,27,25Z" style="fill:#232328"/><path d="M37,33a4,4,0,1,0,4,4A4.0045,4.0045,0,0,0,37,33Zm0,6a2,2,0,1,1,2-2A2.002,2.002,0,0,1,37,39Z" style="fill:#232328"/><path d="M60.2144,26.019A5.85,5.85,0,0,1,58.33,20.1606,7.787,7.787,0,0,0,51.3242,10.5a5.7959,5.7959,0,0,1-4.9458-3.6133A7.7449,7.7449,0,0,0,35.0566,3.1938a5.7672,5.7672,0,0,1-6.1147-.0009,7.7454,7.7454,0,0,0-11.32,3.6933,5.8014,5.8014,0,0,1-4.9575,3.6153,7.7864,7.7864,0,0,0-6.99,9.6743,5.8523,5.8523,0,0,1-1.9028,5.8555,7.8133,7.8133,0,0,0,.0141,11.95A5.85,5.85,0,0,1,5.67,43.8394,7.787,7.787,0,0,0,12.6758,53.5a5.7959,5.7959,0,0,1,4.9458,3.6133,7.7449,7.7449,0,0,0,11.3218,3.6929,5.7665,5.7665,0,0,1,6.1132,0l.5342-.8453-.5327.8462a7.7454,7.7454,0,0,0,11.32-3.6933,5.8014,5.8014,0,0,1,4.9575-3.6153,7.7864,7.7864,0,0,0,6.99-9.6743,5.852,5.852,0,0,1,1.9028-5.8554,7.8134,7.8134,0,0,0-.0141-11.95ZM58.9253,36.4517a7.8641,7.8641,0,0,0-2.5371,7.87,5.7864,5.7864,0,0,1-5.2027,7.1826A7.806,7.806,0,0,0,44.522,56.37a5.7457,5.7457,0,0,1-8.4,2.7437,7.7761,7.7761,0,0,0-8.2456.0005A5.7444,5.7444,0,0,1,19.478,56.37a7.8106,7.8106,0,0,0-6.6753-4.8657,5.7384,5.7384,0,0,1-4.2509-2.3574,5.81,5.81,0,0,1-.9361-4.84A7.866,7.866,0,0,0,5.0605,36.44a5.8131,5.8131,0,0,1,.0142-8.8912,7.8641,7.8641,0,0,0,2.5371-7.87,5.7864,5.7864,0,0,1,5.2027-7.1826A7.806,7.806,0,0,0,19.478,7.63a5.7408,5.7408,0,0,1,8.4-2.7437,7.774,7.774,0,0,0,8.2456,0A5.7444,5.7444,0,0,1,44.522,7.63a7.8106,7.8106,0,0,0,6.6753,4.8657,5.7384,5.7384,0,0,1,4.2509,2.3574,5.81,5.81,0,0,1,.9361,4.84A7.866,7.866,0,0,0,58.94,27.5605a5.8131,5.8131,0,0,1-.0142,8.8912Z" style="fill:#232328"/><path d="M32,12A20,20,0,1,0,52,32,20.023,20.023,0,0,0,32,12Zm0,38A18,18,0,1,1,50,32,18.02,18.02,0,0,1,32,50Z" style="fill:#232328"/></g></svg>