<svg width="20" height="25" viewBox="0 0 20 25" fill="none" xmlns="http://www.w3.org/2000/svg">
<g id="Group">
<path id="Vector" d="M19.4141 1.5625H15.3125V0.78125C15.3125 0.349792 15.0502 0 14.7266 0C14.403 0 14.1406 0.349792 14.1406 0.78125V1.5625H5.9375V0.78125C5.9375 0.349792 5.67516 0 5.35156 0C5.02797 0 4.76562 0.349792 4.76562 0.78125V1.5625H0.585938C0.262344 1.5625 0 1.91229 0 2.34375V24.2187C0 24.6502 0.262344 25 0.585938 25H19.4141C19.7377 25 20 24.6502 20 24.2187V2.34375C20 1.91229 19.7377 1.5625 19.4141 1.5625ZM14.1406 3.125V4.6875H5.9375V3.125H14.1406ZM4.76562 3.125V4.6875H4.17969C3.85609 4.6875 3.59375 5.03729 3.59375 5.46875C3.59375 5.90021 3.85609 6.25 4.17969 6.25H15.8984C16.222 6.25 16.4844 5.90021 16.4844 5.46875C16.4844 5.03729 16.222 4.6875 15.8984 4.6875H15.3125V3.125H18.8281V7.8125H1.17188V3.125H4.76562ZM1.17188 9.375H18.8281V14.8437C18.8281 17.0185 15.6887 17.1875 14.7266 17.1875C14.403 17.1875 14.1406 17.5373 14.1406 17.9687C14.1406 19.1117 13.7858 20.5127 13.2147 21.6251C12.6234 22.7769 11.893 23.4375 11.2109 23.4375H1.17188V9.375ZM18.2168 17.9991C17.8052 19.034 17.1923 20.007 16.3991 20.8667C15.7107 21.6128 14.9248 22.2195 14.104 22.6558C14.7321 21.487 15.1543 20.0621 15.2762 18.7361C16.2402 18.6868 17.3323 18.4969 18.2168 17.9991ZM17.1383 22.0791C17.8123 21.3487 18.3782 20.5358 18.8281 19.6552V23.4375H15.618C16.1514 23.0497 16.6622 22.5951 17.1383 22.0791Z" fill="#979797"/>
</g>
</svg>
