<svg width="20" height="25" viewBox="0 0 20 25" fill="none" xmlns="http://www.w3.org/2000/svg">
<g id="Group">
<path id="Vector" d="M17.0235 2.88496C15.1418 1.02456 12.6474 0 10 0C7.35256 0 4.85824 1.02456 2.97649 2.88496C1.05709 4.78262 0 7.31973 0 10.0289C0 12.7117 1.0592 15.2161 2.98254 17.0807C4.82601 18.8678 7.30962 19.9249 9.97585 20.0572C11.38 20.1267 13.2714 19.5371 14.413 19.0113L18.9748 24.7777C19.0895 24.9227 19.2449 25 19.4032 25C19.4787 25 19.5548 24.9825 19.6274 24.9463C19.8526 24.8342 20 24.5658 20 24.2676V10.0289C20 7.31978 18.9429 4.78267 17.0235 2.88496ZM18.8062 22.4615L14.9907 17.6384C14.8759 17.4933 14.7204 17.4161 14.5622 17.4161C14.4822 17.4161 14.4013 17.4359 14.3248 17.4767C13.3664 17.9869 11.3383 18.6589 10.0241 18.5936C7.60775 18.4737 5.36985 17.5282 3.7226 15.9313C2.0919 14.3504 1.19378 12.2542 1.19378 10.0289C1.19378 5.30669 5.14427 1.46484 10 1.46484C14.8557 1.46484 18.8062 5.30669 18.8062 10.0289V22.4615Z" fill="#979797"/>
</g>
</svg>
