<svg fill="#000000" xmlns="http://www.w3.org/2000/svg"  viewBox="0 0 64 64" width="64px" height="64px"><path d="M 31 2 C 15.011719 2 2 15.007813 2 31 C 2 46.992188 15.011719 60 31 60 C 46.988281 60 60 46.992188 60 31 C 60 15.007813 46.988281 2 31 2 Z M 31 4 C 45.886719 4 58 16.113281 58 31 C 58 45.886719 45.886719 58 31 58 C 16.113281 58 4 45.886719 4 31 C 4 16.113281 16.113281 4 31 4 Z M 30.5625 8.007813 C 24.671875 8.125 18.960938 10.511719 14.734375 14.734375 C 5.769531 23.703125 5.769531 38.292969 14.734375 47.261719 C 14.929688 47.457031 15.1875 47.554688 15.441406 47.554688 C 15.699219 47.554688 15.957031 47.457031 16.152344 47.261719 C 16.542969 46.871094 16.542969 46.238281 16.152344 45.847656 C 7.960938 37.660156 7.964844 24.339844 16.152344 16.152344 C 20.898438 11.402344 27.699219 9.199219 34.339844 10.265625 C 34.882813 10.355469 35.398438 9.980469 35.484375 9.4375 C 35.574219 8.890625 35.199219 8.375 34.65625 8.289063 C 33.292969 8.070313 31.921875 7.976563 30.5625 8.007813 Z M 38.660156 9.386719 C 38.269531 9.402344 37.910156 9.648438 37.765625 10.035156 C 37.570313 10.554688 37.832031 11.128906 38.351563 11.324219 C 39.066406 11.589844 39.769531 11.898438 40.453125 12.238281 C 40.597656 12.3125 40.75 12.347656 40.902344 12.347656 C 41.265625 12.347656 41.617188 12.148438 41.796875 11.796875 C 42.042969 11.304688 41.84375 10.703125 41.351563 10.453125 C 40.609375 10.078125 39.832031 9.742188 39.050781 9.449219 C 38.921875 9.402344 38.789063 9.382813 38.660156 9.386719 Z M 44.433594 12.675781 C 44.179688 12.707031 43.9375 12.832031 43.765625 13.050781 C 43.425781 13.484375 43.5 14.113281 43.9375 14.453125 C 44.605469 14.976563 45.246094 15.546875 45.847656 16.152344 C 54.039063 24.339844 54.039063 37.660156 45.847656 45.847656 C 45.457031 46.242188 45.457031 46.871094 45.847656 47.265625 C 46.042969 47.457031 46.300781 47.558594 46.558594 47.558594 C 46.8125 47.558594 47.070313 47.457031 47.265625 47.265625 C 56.230469 38.296875 56.230469 23.703125 47.265625 14.734375 C 46.605469 14.078125 45.902344 13.453125 45.171875 12.878906 C 44.953125 12.710938 44.683594 12.644531 44.433594 12.675781 Z M 24 20 C 23.445313 20 23 20.449219 23 21 C 23 21.550781 23.445313 22 24 22 L 28 22 C 30.757813 22 33 24.242188 33 27 C 33 29.757813 30.757813 32 28 32 L 26 32 C 25.613281 32 25.265625 32.21875 25.097656 32.566406 C 24.933594 32.914063 24.980469 33.324219 25.21875 33.625 L 33.21875 43.625 C 33.417969 43.871094 33.707031 44 34 44 C 34.222656 44 34.441406 43.929688 34.625 43.78125 C 35.054688 43.4375 35.125 42.808594 34.78125 42.375 L 28.078125 34 C 31.5625 33.960938 34.4375 31.359375 34.921875 28 L 38 28 C 38.554688 28 39 27.550781 39 27 C 39 26.449219 38.554688 26 38 26 L 34.921875 26 C 34.695313 24.441406 33.960938 23.050781 32.890625 22 L 38 22 C 38.554688 22 39 21.550781 39 21 C 39 20.449219 38.554688 20 38 20 Z M 24 26 C 23.445313 26 23 26.449219 23 27 C 23 27.550781 23.445313 28 24 28 L 30 28 C 30.554688 28 31 27.550781 31 27 C 31 26.449219 30.554688 26 30 26 Z M 21.375 47.394531 C 20.984375 47.347656 20.589844 47.527344 20.386719 47.886719 L 19.386719 49.621094 C 19.109375 50.097656 19.273438 50.707031 19.75 50.984375 C 19.90625 51.074219 20.078125 51.121094 20.25 51.121094 C 20.59375 51.121094 20.929688 50.941406 21.113281 50.621094 L 22.113281 48.886719 C 22.390625 48.410156 22.230469 47.796875 21.75 47.519531 C 21.628906 47.453125 21.503906 47.410156 21.375 47.394531 Z M 40.625 47.394531 C 40.496094 47.410156 40.367188 47.453125 40.25 47.519531 C 39.769531 47.796875 39.609375 48.410156 39.886719 48.890625 L 40.886719 50.621094 C 41.070313 50.941406 41.40625 51.121094 41.75 51.121094 C 41.921875 51.121094 42.09375 51.078125 42.25 50.984375 C 42.730469 50.710938 42.890625 50.097656 42.613281 49.621094 L 41.613281 47.890625 C 41.40625 47.53125 41.011719 47.347656 40.625 47.394531 Z M 36.1875 49.34375 C 36.058594 49.324219 35.921875 49.332031 35.785156 49.371094 C 35.253906 49.511719 34.9375 50.0625 35.078125 50.59375 L 35.597656 52.527344 C 35.71875 52.972656 36.121094 53.269531 36.5625 53.269531 C 36.652344 53.269531 36.738281 53.257813 36.824219 53.234375 C 37.355469 53.089844 37.675781 52.542969 37.53125 52.011719 L 37.015625 50.078125 C 36.90625 49.675781 36.570313 49.398438 36.1875 49.34375 Z M 25.816406 49.34375 C 25.429688 49.398438 25.09375 49.675781 24.984375 50.078125 L 24.46875 52.011719 C 24.324219 52.542969 24.644531 53.089844 25.175781 53.234375 C 25.261719 53.257813 25.347656 53.269531 25.4375 53.269531 C 25.875 53.269531 26.28125 52.972656 26.402344 52.527344 L 26.921875 50.59375 C 27.0625 50.0625 26.746094 49.511719 26.214844 49.371094 C 26.082031 49.332031 25.945313 49.328125 25.816406 49.34375 Z M 31 50 C 30.445313 50 30 50.449219 30 51 L 30 53 C 30 53.550781 30.445313 54 31 54 C 31.554688 54 32 53.550781 32 53 L 32 51 C 32 50.449219 31.554688 50 31 50 Z"/></svg>