<?xml version="1.0" encoding="utf-8"?>
<!-- Generator: Adobe Illustrator 25.4.1, SVG Export Plug-In . SVG Version: 6.00 Build 0)  -->
<svg version="1.0" id="Layer_1" xmlns="http://www.w3.org/2000/svg" xmlns:xlink="http://www.w3.org/1999/xlink" x="0px" y="0px"
	 viewBox="0 0 64 64" style="enable-background:new 0 0 64 64;" xml:space="preserve">
<style type="text/css">
	.st0{fill:none;stroke:#231F20;stroke-width:2;stroke-linecap:round;stroke-linejoin:round;stroke-miterlimit:10;}
</style>
<g>
	<line class="st0" x1="43.95" y1="32" x2="34.75" y2="32"/>
	<line class="st0" x1="32" y1="29.26" x2="32" y2="13.88"/>
	<circle class="st0" cx="32" cy="32" r="2.75"/>
	<path class="st0" d="M41.44,5.94c14.31,5.17,21.98,21.11,16.53,35.77c-4.82,12.96-18.83,20.46-32.29,17.28
		C9.97,55.28,0.87,39.18,5.47,23.97C7.92,15.9,13.71,9.76,20.87,6.63l-1.66-3.34l12.06,0.51L24.4,14.61l-1.67-4.04
		c-6.37,2.76-11.47,8.31-13.35,15.65c-2.94,11.44,3.34,23.51,14.41,27.65c12.76,4.77,26.7-2.26,30.58-15.1
		c3.61-11.94-2.79-24.51-14.38-28.71c-0.68-0.25-1.03-1-0.83-1.69l0.47-1.54C39.86,6.06,40.69,5.66,41.44,5.94z"/>
</g>
</svg>
